<svg id="Calque_2" data-name="Calque 2" xmlns="http://www.w3.org/2000/svg" viewBox="0 0 93.67 70.24"><path d="M92.03 60.72c-.89 0-3.72-.3-5.73-1.79 2.08-2.75 6.03-7.81 6.03-17.56 0-16-13.32-28.42-28.79-28.42s-28.79 12.5-28.79 28.79c0 1.65.14 3.27.42 4.84-2.33.7-3.3.85-3.3.85-1.04.21-2.16.33-3.37.33-9.75 0-18.3-8.85-18.3-19.19 0-11.01 9-19.05 17.93-19.05 6.1 0 10.79 2.75 14.73 7.29h.29c2.41-1.97 5.09-3.57 8-4.78.17-.07.34-.14.51-.2C45.73 3.43 36.26 0 28.49 0 12.57 0 0 13.24 0 28.42s12.8 28.87 28.72 28.87c2.08 0 6.13-.37 9.63-1.72 4.92 8.77 14.38 14.68 25.18 14.68 5.58 0 11.09-1.64 15.62-4.54 2.53 1.71 6.62 4.54 13.09 4.54h1.41v-9.52h-1.64Zm-28.49 0h-.45c-4.09 0-10.94-2.16-14.95-8.48 1.12-.37 2.31-.67 4.39-.67 5.28 0 10.79 1.79 18.52 7.51-1.49.6-3.79 1.64-7.51 1.64Zm14.73-7.59h-.15c0-.07-11.09-11.09-25.52-11.09 0 0-3.86-.05-7.59 1.03-.07-.3-.08-.96-.08-2.07.37-8.85 7.14-18.52 18.6-18.52 10.04 0 18.6 8.18 18.6 19.19-.07 6.7-2.46 9.45-3.87 11.46Z" style="fill:#5b7f71;stroke-width:0" id="Layer_1" data-name="Layer 1"/></svg>